<svg version="1.0" xmlns="http://www.w3.org/2000/svg"
 width="96.000000pt" height="96.000000pt" viewBox="0 0 96.000000 96.000000"
 preserveAspectRatio="xMidYMid meet">

<g transform="translate(0.000000,96.000000) scale(0.100000,-0.100000)"
fill="#000000" stroke="none">
<path d="M720 775 c0 -24 -1 -25 -60 -18 l-60 6 0 -283 0 -283 60 6 c59 7 60
6 60 -18 0 -22 4 -25 40 -25 38 0 40 2 40 30 0 26 4 30 28 30 37 0 88 33 112
72 18 29 20 51 20 186 0 163 -5 185 -53 230 -14 13 -43 26 -66 29 -37 5 -41 8
-41 34 0 27 -3 29 -40 29 -36 0 -40 -3 -40 -25z m80 -295 l0 -120 -40 0 -40 0
0 120 0 120 40 0 40 0 0 -120z"/>
<path d="M0 480 l0 -280 260 0 260 0 0 280 0 280 -260 0 -260 0 0 -280z"/>
</g>
</svg>
