<svg version="1.0" xmlns="http://www.w3.org/2000/svg"
 width="100.000000pt" height="100.000000pt" viewBox="0 0 100.000000 100.000000"
 preserveAspectRatio="xMidYMid meet">

<g transform="translate(0.000000,100.000000) scale(0.100000,-0.100000)"
fill="#000000" stroke="none">
<path d="M820 760 c0 -18 -8 -20 -107 -22 l-108 -3 0 -235 0 -235 108 -3 c99
-2 107 -4 107 -22 0 -13 7 -20 20 -20 13 0 20 7 20 20 0 14 7 20 23 20 37 0
64 27 87 86 28 76 35 160 20 236 -21 106 -56 158 -109 158 -14 0 -21 6 -21 20
0 13 -7 20 -20 20 -13 0 -20 -7 -20 -20z m-55 -90 c-22 -23 -38 -30 -67 -30
-36 0 -38 2 -38 30 l0 30 67 0 67 0 -29 -30z m170 -32 c14 -34 14 -38 0 -38
-15 0 -29 26 -41 78 -6 24 -5 26 9 12 9 -8 23 -32 32 -52z m-73 -71 c9 -43 9
-73 1 -123 -6 -36 -14 -69 -17 -72 -4 -3 -23 11 -44 31 -36 35 -37 40 -37 101
0 60 2 67 34 100 19 20 39 32 43 28 5 -5 14 -34 20 -65z m73 -204 c-9 -21 -23
-45 -32 -53 -14 -14 -15 -12 -9 12 12 52 26 78 41 78 14 0 14 -4 0 -37z m-184
-15 c8 -7 21 -21 28 -30 12 -17 9 -18 -53 -18 l-66 0 0 30 c0 28 2 30 38 30
21 0 45 -6 53 -12z"/>
<path d="M5 747 c-3 -7 -4 -123 -3 -257 l3 -245 275 0 275 0 0 255 0 255 -273
3 c-215 2 -274 0 -277 -11z"/>
</g>
</svg>
