<svg version="1.0" xmlns="http://www.w3.org/2000/svg"
 width="100.000000pt" height="100.000000pt" viewBox="0 0 100.000000 100.000000"
 preserveAspectRatio="xMidYMid meet">

<g transform="translate(0.000000,100.000000) scale(0.100000,-0.100000)"
fill="#000000" stroke="none">
<path d="M112 808 c-18 -18 -15 -27 18 -65 21 -23 30 -44 30 -68 0 -32 2 -35
30 -35 17 0 30 -4 30 -10 0 -5 9 -10 20 -10 11 0 20 5 20 10 0 6 13 10 28 10
15 0 33 5 40 12 16 16 16 140 0 156 -16 16 -200 16 -216 0z"/>
<path d="M652 788 c-7 -7 -12 -37 -12 -68 0 -58 11 -80 42 -80 10 0 18 -4 18
-10 0 -14 37 -12 44 3 5 10 7 10 12 0 7 -15 44 -17 44 -3 0 6 8 10 18 10 31 0
42 22 42 80 0 31 -5 61 -12 68 -7 7 -44 12 -98 12 -54 0 -91 -5 -98 -12z"/>
<path d="M4 727 c-2 -7 -3 -114 -2 -237 l3 -225 37 -3 c27 -2 43 3 57 17 20
20 21 32 21 221 0 187 -1 201 -20 220 -23 23 -88 28 -96 7z"/>
<path d="M884 727 c-3 -8 -4 -34 -2 -57 3 -42 4 -43 53 -56 28 -7 54 -13 58
-14 4 0 7 30 5 68 l-3 67 -53 3 c-38 2 -54 -1 -58 -11z"/>
<path d="M359 650 l-31 -50 -84 0 -84 0 0 -100 0 -100 84 0 84 0 31 -50 31
-50 78 0 c78 0 79 0 149 50 67 47 75 50 132 50 64 0 202 24 233 41 26 14 26
104 0 118 -31 17 -169 41 -233 41 -57 0 -65 3 -132 50 -70 50 -71 50 -149 50
l-78 0 -31 -50z m221 -110 c11 -11 20 -29 20 -40 0 -39 -35 -60 -100 -60 l-60
0 0 60 0 60 60 0 c47 0 64 -4 80 -20z"/>
<path d="M930 386 l-45 -12 0 -54 0 -55 55 0 55 0 3 68 c3 74 5 73 -68 53z"/>
<path d="M220 370 c0 -5 -13 -10 -30 -10 -27 0 -30 -3 -30 -31 0 -36 -15 -67
-44 -90 -17 -14 -19 -21 -10 -36 9 -15 27 -18 109 -21 63 -2 102 1 111 9 18
15 19 140 2 157 -7 7 -25 12 -40 12 -15 0 -28 5 -28 10 0 6 -9 10 -20 10 -11
0 -20 -4 -20 -10z"/>
<path d="M700 370 c0 -5 -8 -10 -18 -10 -31 0 -42 -22 -42 -80 0 -31 5 -61 12
-68 7 -7 44 -12 98 -12 54 0 91 5 98 12 7 7 12 37 12 68 0 58 -11 80 -42 80
-10 0 -18 5 -18 10 0 14 -37 12 -44 -2 -5 -10 -7 -10 -12 0 -7 14 -44 16 -44
2z"/>
</g>
</svg>
