<svg version="1.0" xmlns="http://www.w3.org/2000/svg"
 width="100.000000pt" height="100.000000pt" viewBox="0 0 100.000000 100.000000"
 preserveAspectRatio="xMidYMid meet">

<g transform="translate(0.000000,100.000000) scale(0.100000,-0.100000)"
fill="#000000" stroke="none">
<path d="M600 800 c0 -19 -7 -20 -235 -20 -249 0 -275 -4 -294 -47 -39 -85
-39 -381 0 -466 19 -43 45 -47 294 -47 228 0 235 -1 235 -20 0 -13 7 -20 20
-20 13 0 20 7 20 20 0 19 7 20 105 20 156 0 183 20 204 151 20 120 8 287 -25
350 -24 47 -60 59 -179 59 -98 0 -105 1 -105 20 0 13 -7 20 -20 20 -13 0 -20
-7 -20 -20z m-50 -100 c-45 -39 -45 -39 -130 -39 -85 0 -85 0 -130 39 l-45 39
175 0 175 0 -45 -39z m346 -15 c7 -19 14 -46 14 -60 0 -20 -5 -25 -25 -25 -24
0 -25 3 -25 60 0 68 14 78 36 25z m-672 -51 l36 -36 0 -97 0 -97 -40 -39 c-36
-35 -40 -37 -47 -19 -10 24 -11 283 -1 307 10 23 10 23 52 -19z m456 -6 c21
-73 24 -158 6 -228 -9 -35 -19 -66 -21 -69 -3 -3 -23 13 -45 34 l-40 39 0 97
0 97 36 36 c20 20 39 36 43 36 4 0 14 -19 21 -42z m230 -253 c0 -33 -26 -95
-39 -95 -7 0 -11 25 -11 60 0 57 1 60 25 60 20 0 25 -5 25 -25z m-360 -75 l45
-39 -175 0 -175 0 45 39 c45 39 45 39 130 39 85 0 85 0 130 -39z"/>
</g>
</svg>
